<?xml version="1.0" encoding="UTF-8" standalone="no"?>
<!-- Created with Inkscape (http://www.inkscape.org/) -->

<svg
   xmlns:dc="http://purl.org/dc/elements/1.1/"
   xmlns:cc="http://creativecommons.org/ns#"
   xmlns:rdf="http://www.w3.org/1999/02/22-rdf-syntax-ns#"
   xmlns:svg="http://www.w3.org/2000/svg"
   xmlns="http://www.w3.org/2000/svg"
   xmlns:sodipodi="http://sodipodi.sourceforge.net/DTD/sodipodi-0.dtd"
   xmlns:inkscape="http://www.inkscape.org/namespaces/inkscape"
   version="1.1"
   id="svg867"
   width="558.47357"
   height="939.086">
  <metadata
     id="metadata873">
    <rdf:RDF>
      <cc:Work
         rdf:about="">
        <dc:format>image/svg+xml</dc:format>
        <dc:type
           rdf:resource="http://purl.org/dc/dcmitype/StillImage" />
      </cc:Work>
    </rdf:RDF>
  </metadata>
  <defs
     id="defs871">
    <inkscape:path-effect
       is_visible="true"
       id="path-effect817"
       effect="spiro" />
  </defs>
  <sodipodi:namedview
     pagecolor="#ffffff"
     bordercolor="#666666"
     borderopacity="1"
     objecttolerance="10"
     gridtolerance="10"
     guidetolerance="10"
     inkscape:pageopacity="0"
     inkscape:pageshadow="2"
     inkscape:window-width="640"
     inkscape:window-height="480"
     id="namedview869" />
  <inkscape:clipboard
     style="font-variant-east_asian:normal;opacity:1;vector-effect:none;fill:#000000;fill-opacity:1;stroke:none;stroke-width:1.06160001;stroke-linecap:butt;stroke-linejoin:miter;stroke-miterlimit:4;stroke-dasharray:none;stroke-dashoffset:0;stroke-opacity:1;marker-start:none;marker-end:none"
     inkscape:path-effect="#path-effect817"
     min="85.195187,208.57145"
     max="643.66875,1147.6575" />
  <path
     inkscape:original-d="M 39.309524,62.654761 C 57.956613,57.110846 76.603438,51.567196 95.249999,46.02381 113.89656,40.480424 67.532011,81.805289 53.672618,99.696427 39.813227,117.58757 96.510183,133.966 117.92857,151.10119 c 21.41839,17.13518 11.59153,-52.412963 17.3869,-78.619047 5.79537,-26.206085 -18.64656,25.702114 -27.97023,38.553567 -9.323681,12.85146 17.63915,87.18624 26.45833,130.77976"
     inkscape:path-effect="#path-effect817"
     inkscape:connector-curvature="0"
     id="path815"
     d="M 39.309524,62.654761 C 33.38192,58.679077 28.617302,52.990926 25.742536,46.458066 22.867771,39.925205 21.892506,32.56956 22.965525,25.513274 c 1.073018,-7.056286 4.190718,-13.789532 8.877479,-19.1725444 4.68676,-5.38301269 10.92685,-9.3977258 17.768312,-11.4316738 6.841462,-2.033948 14.261334,-2.0803045 21.127675,-0.1319976 6.866342,1.948307 13.156108,5.88473843 17.909761,11.208771 4.753654,5.3240328 7.955241,12.0177978 9.116342,19.0601258 1.161101,7.042329 0.27782,14.409585 -2.515095,20.977855 C 90.771607,56.555921 81.864,64.427446 73.487027,72.225373 c -4.188487,3.898964 -8.32573,7.88656 -11.857082,12.389324 -3.531352,4.502765 -6.457614,9.559394 -7.957327,15.08173 -2.128448,7.837503 -1.245124,16.376283 2.015741,23.814253 3.260865,7.43798 8.820222,13.7781 15.506271,18.38825 13.372098,9.2203 30.63065,11.32621 46.73394,9.20226 10.83176,-1.42866 21.55189,-4.70248 30.69819,-10.67852 9.14631,-5.97605 16.63751,-14.80053 19.89822,-25.22817 1.63035,-5.21383 2.18988,-10.7774 1.47122,-16.19271 -0.71865,-5.415307 -2.72841,-10.673822 -5.93478,-15.09663 -3.20637,-4.422808 -7.61652,-7.989761 -12.6736,-10.055656 -5.05709,-2.065895 -10.75119,-2.603201 -16.07235,-1.367361 -8.18466,1.900889 -15.01723,7.847118 -19.48249,14.964946 -4.46526,7.117828 -6.80839,15.355651 -8.48774,23.588621 -9.131789,44.7683 0.64261,93.08176 26.45833,130.77976"
     style="fill:#000000;fill-opacity:1;stroke:none;stroke-width:0.28088167;stroke-linecap:butt;stroke-linejoin:miter;stroke-dasharray:none;stroke-opacity:1;marker-start:none;marker-end:none"
     transform="matrix(3.7795276,0,0,3.7795276,-85.195188,25.13778)" />
</svg>